<svg xmlns="http://www.w3.org/2000/svg" xmlns:xlink="http://www.w3.org/1999/xlink" version="1.1" width="100%" height="100%" viewBox="0 0 670 430" xml:space="preserve">
	<g transform="matrix(1 0 0 1 335.3082 215.0953)" id="683315">
		<g style="">
			<g transform="matrix(0.8587 0 0 0.8587 0.0142 0.0091)" id="katman_1">
				<path style="stroke: none; stroke-width: 1; stroke-dasharray: none; stroke-linecap: butt; stroke-dashoffset: 0; stroke-linejoin: miter; stroke-miterlimit: 4; is-custom-font: none; font-file-url: none; fill: rgb(10,70,147); fill-rule: nonzero; opacity: 1;" transform=" translate(0, 0)" d="M -350 -250 h 700 c 22.1 0 40 17.9 40 40 v 420 c 0 22.1 -17.9 40 -40 40 h -700 c -22.1 0 -40 -17.9 -40 -40 v -420 C -390 -232.1 -372.1 -250 -350 -250 z" stroke-linecap="round" />
			</g>
			<g transform="matrix(0.8587 0 0 0.8587 24.0105 -0.0393)" id="katman_1">
				<path style="stroke: none; stroke-width: 1; stroke-dasharray: none; stroke-linecap: butt; stroke-dashoffset: 0; stroke-linejoin: miter; stroke-miterlimit: 4; is-custom-font: none; font-file-url: none; fill: rgb(255,255,255); fill-rule: nonzero; opacity: 1;" transform=" translate(-27.95, 0.05)" d="M -96.8 98.7 L -63.4 -97 h 53.4 L -43.5 98.7 H -96.8 z M 149.3 -92.8 c -10.6 -4 -27.1 -8.2 -47.8 -8.2 c -52.7 0 -89.9 26.6 -90.2 64.6 C 11 -8.3 37.8 7.4 58.1 16.8 C 78.8 26.4 85.8 32.5 85.7 41 c -0.1 13.1 -16.6 19.1 -31.9 19.1 c -21.4 0 -32.7 -3 -50.2 -10.3 l -6.9 -3.1 l -7.5 43.8 c 12.5 5.5 35.5 10.2 59.4 10.4 c 56.1 0 92.5 -26.2 92.9 -66.9 c 0.2 -22.3 -14 -39.2 -44.8 -53.2 c -18.6 -9.1 -30.1 -15.1 -30 -24.3 c 0 -8.1 9.7 -16.8 30.6 -16.8 c 17.4 -0.3 30.1 3.5 39.9 7.5 l 4.8 2.3 L 149.3 -92.8 M 286.6 -97 h -41.2 c -12.8 0 -22.3 3.5 -27.9 16.2 L 138.2 98.6 h 56 c 0 0 9.2 -24.1 11.2 -29.4 c 6.1 0 60.6 0.1 68.3 0.1 c 1.6 6.9 6.5 29.3 6.5 29.3 h 49.5 L 286.6 -97 L 286.6 -97 z M 221.2 29.4 c 4.4 -11.3 21.3 -54.7 21.3 -54.7 c -0.3 0.5 4.4 -11.3 7.1 -18.7 l 3.6 16.9 c 0 0 10.2 46.7 12.4 56.5 H 221.2 z M -142.1 -97 l -52.2 133.5 l -5.6 -27.1 c -9.7 -31.3 -40 -65.2 -73.9 -82.1 L -226 98.4 l 56.5 -0.1 l 84 -195.4 L -142.1 -97" stroke-linecap="round" />
			</g>
			<g transform="matrix(0.8587 0 0 0.8587 -227.5436 -37.5648)" id="katman_1">
				<path style="stroke: none; stroke-width: 1; stroke-dasharray: none; stroke-linecap: butt; stroke-dashoffset: 0; stroke-linejoin: miter; stroke-miterlimit: 4; is-custom-font: none; font-file-url: none; fill: rgb(242,174,19); fill-rule: nonzero; opacity: 1;" transform=" translate(265, 43.75)" d="M -243.1 -97 h -86 l -0.7 4.1 c 66.9 16.2 111.2 55.4 129.6 102.4 l -18.7 -90 C -222.1 -92.9 -231.5 -96.6 -243.1 -97" stroke-linecap="round" />
			</g>
		</g>
	</g>
</svg>
